<svg width="22" height="22" viewBox="0 0 22 22" fill="none" xmlns="http://www.w3.org/2000/svg">
<path d="M15.773 20.8339H6.20129V22H15.773V20.8339Z" fill="#4C4C4C"/>
<path d="M15.773 20.2763H6.20129V18.2526C7.54725 19.2408 9.20628 19.8264 11.0005 19.8264C12.7831 19.8264 14.4323 19.2476 15.773 18.2708V20.2763Z" fill="#4C4C4C"/>
<path d="M13.8641 1.45984C13.8641 0.654827 14.5191 0 15.3233 0C16.1291 0 16.7836 0.655397 16.7836 1.45984V9.31761L13.8641 6.49652V5.90698V5.09144V1.45984Z" fill="#4C4C4C"/>
<path d="M11.8469 5.37051C12.3936 5.37051 12.8928 5.68043 13.1423 6.16375C13.0828 6.17127 13.0251 6.19305 12.9794 6.23879C11.7316 7.48679 11.7316 9.51614 12.9794 10.764L13.2713 11.0559C13.1253 11.7202 12.5291 12.2009 11.8469 12.2009C11.0412 12.2009 10.3865 11.5457 10.3865 10.7411V9.61825V6.83066C10.3865 6.02487 11.0412 5.37051 11.8469 5.37051Z" fill="#4C4C4C"/>
<path d="M14.4206 12.208C14.4086 12.2064 14.3978 12.2014 14.3857 12.2014H13.2266C13.4341 12.0054 13.6056 11.7707 13.7161 11.4996L14.4243 12.2085C14.4228 12.208 14.4217 12.208 14.4206 12.208Z" fill="#4C4C4C"/>
<path d="M8.36921 5.37051C9.17427 5.37051 9.82874 6.02565 9.82874 6.83004V9.61768C9.82874 10.4231 9.17375 11.0777 8.36921 11.0777C7.56404 11.0777 6.90958 10.4224 6.90958 9.61768V6.83004C6.90932 6.02487 7.56404 5.37051 8.36921 5.37051Z" fill="#4C4C4C"/>
<path d="M4.89157 2.53873C5.69725 2.53873 6.35182 3.19381 6.35182 3.99831V6.82977V9.61736C6.35182 10.73 7.25672 11.6346 8.36894 11.6346C8.95096 11.6346 9.47598 11.3874 9.84444 10.9916C9.90351 11.4647 10.1287 11.8868 10.458 12.2003H5.92253C5.7683 12.2003 5.64379 12.3247 5.64379 12.4791C5.64379 12.6327 5.76835 12.7579 5.92253 12.7579H13.3295L10.8625 14.1574C10.729 14.2328 10.6819 14.4035 10.7574 14.5366C10.8092 14.627 10.9026 14.6776 11.0002 14.6776C11.0467 14.6776 11.0941 14.6662 11.1374 14.6417L14.5227 12.7203C14.5333 12.7142 14.5398 12.7045 14.5492 12.6974C14.5654 12.6855 14.5802 12.674 14.5933 12.6593C14.6053 12.6457 14.6128 12.6316 14.6222 12.6164C14.6309 12.6017 14.6398 12.5864 14.6461 12.569C14.6521 12.551 14.6543 12.5319 14.6576 12.5129C14.6587 12.5012 14.6641 12.4906 14.6641 12.4783C14.6641 12.4727 14.6609 12.4683 14.6609 12.4628C14.6603 12.4568 14.663 12.4508 14.662 12.4454L15.8544 13.6372C15.9085 13.6916 15.9802 13.7189 16.0514 13.7189C16.1228 13.7189 16.194 13.6916 16.2486 13.6372C16.3579 13.5282 16.3579 13.3525 16.2486 13.2429L13.3741 10.3691C12.3624 9.35724 12.3469 7.72398 13.3221 6.6898C13.3237 6.69566 13.3237 6.70095 13.3259 6.70681C13.3277 6.71215 13.3272 6.71853 13.3293 6.72382C13.3324 6.72968 13.3375 6.73445 13.3403 6.74016C13.3539 6.76723 13.3694 6.79269 13.3911 6.81375C13.3917 6.81427 13.3922 6.81509 13.3928 6.81608L18.5673 11.8164C18.5336 14.0585 17.5201 16.0662 15.9365 17.4317C15.8929 17.4522 15.8584 17.4848 15.8303 17.5234C14.5193 18.6129 12.8352 19.2696 11.0014 19.2696C6.82779 19.2696 3.43292 15.8738 3.43292 11.7015V10.4316V3.99882C3.43199 3.19381 4.08661 2.53873 4.89157 2.53873Z" fill="#4C4C4C"/>
</svg>
